<svg width="660" height="166" viewBox="0 0 660 166" fill="none" xmlns="http://www.w3.org/2000/svg">
<g filter="url(#filter0_b_92_2505)">
<path d="M617.952 165.583C590.355 165.583 576.557 151.598 576.557 123.628V112.533H610.121V128.942C610.121 132.112 610.742 134.598 611.985 136.401C613.228 138.203 615.217 139.104 617.952 139.104C622.8 139.104 625.225 135.468 625.225 128.196C625.225 122.105 623.95 117.567 621.402 114.584C618.854 111.538 615.746 108.617 612.079 105.82L594.271 92.1147C588.677 87.7639 584.419 83.1643 581.498 78.3162C578.577 73.468 577.116 66.7242 577.116 58.0845C577.116 50.0664 579.012 43.4469 582.803 38.2258C586.657 33.0047 591.723 29.12 598 26.5716C604.34 24.0232 611.177 22.749 618.512 22.749C645.612 22.749 659.162 36.2679 659.162 63.3056V65.9161H624.665V60.6018C624.665 57.8048 624.168 55.101 623.173 52.4905C622.241 49.88 620.376 48.5747 617.579 48.5747C612.856 48.5747 610.494 51.0609 610.494 56.0334C610.494 61.068 612.483 65.0149 616.461 67.874L637.158 82.9779C643.623 87.6395 649.03 93.1714 653.381 99.5734C657.794 105.975 660.001 114.491 660.001 125.119C660.001 138.296 656.24 148.335 648.719 155.234C641.261 162.133 631.005 165.583 617.952 165.583Z" fill="#F6F3E8" fill-opacity="0.05"/>
<path d="M511.292 165.583C503.833 165.583 498.115 164.029 494.137 160.921C490.221 157.813 487.549 153.493 486.119 147.962C484.689 142.368 483.975 135.841 483.975 128.383V24.2407H517.539V124.467C517.539 130.061 517.974 133.977 518.844 136.214C519.714 138.39 521.765 139.477 524.997 139.477C528.478 139.477 530.654 137.923 531.524 134.816C532.456 131.708 532.922 127.699 532.922 122.789V24.2407H566.207V164.091H532.829V149.174C530.716 154.519 528.167 158.59 525.184 161.387C522.263 164.184 517.632 165.583 511.292 165.583Z" fill="#F6F3E8" fill-opacity="0.05"/>
<path d="M410.352 165.583C401.339 165.583 395.248 163.687 392.078 159.895C388.97 156.042 387.417 150.168 387.417 142.274V55.101H378V29.6483H387.417V0H419.862V29.6483H429.278V55.101H419.862V134.443C419.862 136.742 420.235 138.359 420.981 139.291C421.727 140.223 423.156 140.689 425.269 140.689C426.761 140.689 428.097 140.565 429.278 140.316V163.065C428.533 163.314 426.202 163.78 422.286 164.464C418.37 165.21 414.392 165.583 410.352 165.583Z" fill="#F6F3E8" fill-opacity="0.05"/>
<path d="M312.892 165.583C305.433 165.583 299.715 164.029 295.737 160.921C291.821 157.813 289.148 153.493 287.719 147.962C286.289 142.368 285.574 135.841 285.574 128.383V24.2407H319.138V124.467C319.138 130.061 319.573 133.977 320.444 136.214C321.314 138.39 323.365 139.477 326.597 139.477C330.078 139.477 332.253 137.923 333.123 134.816C334.056 131.708 334.522 127.699 334.522 122.789V24.2407H367.806V164.091H334.429V149.174C332.315 154.519 329.767 158.59 326.783 161.387C323.862 164.184 319.232 165.583 312.892 165.583Z" fill="#F6F3E8" fill-opacity="0.05"/>
<path d="M231.687 165.583C203.841 165.583 189.918 151.132 189.918 122.229V66.1026C189.918 52.9256 193.616 42.4213 201.013 34.5897C208.409 26.6959 218.634 22.749 231.687 22.749C244.801 22.749 255.057 26.6959 262.454 34.5897C269.85 42.4213 273.548 52.9256 273.548 66.1026V122.229C273.548 151.132 259.594 165.583 231.687 165.583ZM231.687 139.85C234.484 139.85 236.473 138.856 237.654 136.867C238.897 134.816 239.518 132.236 239.518 129.128V60.7883C239.518 52.6459 236.908 48.5747 231.687 48.5747C226.465 48.5747 223.855 52.6459 223.855 60.7883V129.128C223.855 132.236 224.445 134.816 225.626 136.867C226.87 138.856 228.89 139.85 231.687 139.85Z" fill="#F6F3E8" fill-opacity="0.05"/>
<path d="M151.038 165.583C145.569 165.583 141.125 164.246 137.706 161.574C134.287 158.839 131.553 154.705 129.501 149.174V164.091H95.5645V0H129.501V39.1581C131.553 33.9991 134.381 29.9901 137.986 27.1309C141.653 24.2096 146.874 22.749 153.649 22.749C162.786 22.749 169.219 26.0743 172.948 32.725C176.74 39.3756 178.635 48.0774 178.635 58.8303V127.637C178.635 134.785 177.641 141.249 175.652 147.029C173.725 152.748 170.711 157.285 166.608 160.641C162.568 163.936 157.378 165.583 151.038 165.583ZM137.24 139.571C140.783 139.571 142.927 137.83 143.673 134.349C144.419 130.869 144.792 126.58 144.792 121.483V66.8484C144.792 61.6895 144.419 57.4008 143.673 53.9822C142.927 50.5015 140.814 48.7611 137.333 48.7611C133.728 48.7611 131.522 50.5326 130.713 54.0754C129.905 57.5561 129.501 61.8138 129.501 66.8484V121.483C129.501 126.518 129.905 130.807 130.713 134.349C131.522 137.83 133.697 139.571 137.24 139.571Z" fill="#F6F3E8" fill-opacity="0.05"/>
<path d="M28.343 165.583C20.5735 165.583 14.6377 163.78 10.5354 160.175C6.49527 156.57 3.72934 151.629 2.2376 145.351C0.745868 139.073 0 131.957 0 124.001C0 115.485 0.839101 108.524 2.5173 103.116C4.19551 97.6466 7.05467 93.1714 11.0948 89.6907C15.1971 86.21 20.8221 83.2576 27.97 80.8335L48.6679 73.7477V59.3898C48.6679 51.869 46.2127 48.1085 41.3024 48.1085C36.8272 48.1085 34.5896 51.1542 34.5896 57.2454V65.6364H2.14437C2.08221 65.1392 2.05114 64.5176 2.05114 63.7718C2.05114 62.9637 2.05114 62.0625 2.05114 61.068C2.05114 47.1451 5.31431 37.2934 11.8407 31.513C18.4292 25.6703 28.8402 22.749 43.0739 22.749C50.5326 22.749 57.2143 24.0854 63.1191 26.7581C69.0239 29.3686 73.6855 33.2533 77.1041 38.4123C80.5848 43.5712 82.3252 49.9421 82.3252 57.5251V164.091H49.1341V147.495C47.518 153.338 44.8453 157.813 41.116 160.921C37.3866 164.029 33.129 165.583 28.343 165.583ZM41.4889 139.664C44.2238 139.664 46.0884 138.514 47.0829 136.214C48.0774 133.914 48.5746 131.428 48.5746 128.756V89.7839C43.9751 91.6486 40.4012 94.0105 37.8528 96.8697C35.3044 99.6667 34.0302 103.8 34.0302 109.27V127.264C34.0302 135.53 36.5165 139.664 41.4889 139.664Z" fill="#F6F3E8" fill-opacity="0.05"/>
</g>
<defs>
<filter id="filter0_b_92_2505" x="-100" y="-100" width="860" height="365.583" filterUnits="userSpaceOnUse" color-interpolation-filters="sRGB">
<feFlood flood-opacity="0" result="BackgroundImageFix"/>
<feGaussianBlur in="BackgroundImageFix" stdDeviation="50"/>
<feComposite in2="SourceAlpha" operator="in" result="effect1_backgroundBlur_92_2505"/>
<feBlend mode="normal" in="SourceGraphic" in2="effect1_backgroundBlur_92_2505" result="shape"/>
</filter>
</defs>
</svg>
