<svg width="19" height="21" viewBox="0 0 19 21" fill="none" xmlns="http://www.w3.org/2000/svg">
<path d="M2.95592 5.08534L0.0117188 2.14205L1.29634 0.857422L4.23963 3.80162H18.0773C18.2188 3.80161 18.3583 3.83468 18.4848 3.89819C18.6112 3.96169 18.7211 4.05388 18.8056 4.16739C18.8901 4.2809 18.9469 4.41259 18.9714 4.55195C18.996 4.69131 18.9876 4.83448 18.947 4.97004L16.7681 12.2329C16.7121 12.42 16.5972 12.5841 16.4405 12.7007C16.2838 12.8173 16.0937 12.8803 15.8984 12.8802H4.77164V14.696H14.7581V16.5117H3.86378C3.623 16.5117 3.39208 16.416 3.22182 16.2458C3.05157 16.0755 2.95592 15.8446 2.95592 15.6038V5.08534ZM4.77164 5.61734V11.0645H15.2229L16.8571 5.61734H4.77164ZM4.31771 20.1431C3.95654 20.1431 3.61016 19.9997 3.35478 19.7443C3.09939 19.4889 2.95592 19.1425 2.95592 18.7813C2.95592 18.4202 3.09939 18.0738 3.35478 17.8184C3.61016 17.563 3.95654 17.4195 4.31771 17.4195C4.67888 17.4195 5.02526 17.563 5.28064 17.8184C5.53603 18.0738 5.6795 18.4202 5.6795 18.7813C5.6795 19.1425 5.53603 19.4889 5.28064 19.7443C5.02526 19.9997 4.67888 20.1431 4.31771 20.1431ZM15.2121 20.1431C14.8509 20.1431 14.5045 19.9997 14.2491 19.7443C13.9937 19.4889 13.8503 19.1425 13.8503 18.7813C13.8503 18.4202 13.9937 18.0738 14.2491 17.8184C14.5045 17.563 14.8509 17.4195 15.2121 17.4195C15.5732 17.4195 15.9196 17.563 16.175 17.8184C16.4304 18.0738 16.5738 18.4202 16.5738 18.7813C16.5738 19.1425 16.4304 19.4889 16.175 19.7443C15.9196 19.9997 15.5732 20.1431 15.2121 20.1431Z" fill="#F6F3E8"/>
</svg>
