<svg width="19" height="18" viewBox="0 0 19 18" fill="none" xmlns="http://www.w3.org/2000/svg">
<path d="M8.1 8.1V5.4L12.6 9L8.1 12.6V9.9H0V8.1H8.1ZM1.3122 11.7H3.2238C3.85204 13.2472 4.99834 14.528 6.4666 15.3233C7.93487 16.1187 9.63388 16.3792 11.273 16.0603C12.9121 15.7413 14.3895 14.8628 15.4524 13.5749C16.5153 12.287 17.0977 10.6699 17.1 9C17.1009 7.32839 16.5202 5.70855 15.4574 4.4183C14.3946 3.12805 12.916 2.2478 11.2752 1.92853C9.63434 1.60926 7.93354 1.87087 6.4645 2.66848C4.99546 3.46609 3.84972 4.75 3.2238 6.3H1.3122C2.4588 2.6487 5.8698 0 9.9 0C14.8707 0 18.9 4.0293 18.9 9C18.9 13.9707 14.8707 18 9.9 18C5.8698 18 2.4588 15.3513 1.3122 11.7Z" fill="#F6F3E8"/>
</svg>
