<svg width="20" height="19" viewBox="0 0 20 19" fill="none" xmlns="http://www.w3.org/2000/svg">
<path d="M11.3512 8.12539V5.42539L6.85117 9.02539L11.3512 12.6254V9.92539H19.4512V8.12539H11.3512ZM18.139 11.7254H16.2274C15.5991 13.2726 14.4528 14.5534 12.9846 15.3487C11.5163 16.1441 9.81729 16.4046 8.17818 16.0857C6.53906 15.7667 5.06169 14.8882 3.99878 13.6003C2.93586 12.3124 2.35345 10.6952 2.35117 9.02539C2.35024 7.35378 2.93097 5.73394 3.99376 4.44369C5.05655 3.15344 6.53517 2.27319 8.176 1.95392C9.81683 1.63465 11.5176 1.89626 12.9867 2.69387C14.4557 3.49148 15.6015 4.77539 16.2274 6.32539H18.139C16.9924 2.67409 13.5814 0.0253906 9.55117 0.0253906C4.58047 0.0253906 0.55117 4.05469 0.55117 9.02539C0.55117 13.9961 4.58047 18.0254 9.55117 18.0254C13.5814 18.0254 16.9924 15.3767 18.139 11.7254Z" fill="#F6F3E8"/>
</svg>
