<svg width="1160" height="164" viewBox="0 0 1160 164" fill="none" xmlns="http://www.w3.org/2000/svg">
<g filter="url(#filter0_b_131_1669)">
<path d="M1123.75 144.215C1099.95 144.215 1088.05 132.157 1088.05 108.04V98.4744H1116.99V112.623C1116.99 115.356 1117.53 117.499 1118.6 119.053C1119.67 120.608 1121.39 121.385 1123.75 121.385C1127.93 121.385 1130.02 118.25 1130.02 111.979C1130.02 106.727 1128.92 102.815 1126.72 100.243C1124.52 97.6169 1121.84 95.0981 1118.68 92.6865L1103.33 80.8696C1098.51 77.1182 1094.83 73.1524 1092.32 68.9723C1089.8 64.7921 1088.54 58.9775 1088.54 51.5283C1088.54 44.615 1090.17 38.9075 1093.44 34.4058C1096.76 29.9041 1101.13 26.5546 1106.54 24.3574C1112.01 22.1601 1117.91 21.0615 1124.23 21.0615C1147.59 21.0615 1159.28 32.7177 1159.28 56.0299V58.2808H1129.53V53.6987C1129.53 51.2871 1129.11 48.9559 1128.25 46.705C1127.44 44.4542 1125.84 43.3288 1123.43 43.3288C1119.35 43.3288 1117.32 45.4724 1117.32 49.7597C1117.32 54.1007 1119.03 57.5037 1122.46 59.9689L1140.31 72.9916C1145.88 77.011 1150.54 81.7806 1154.29 87.3006C1158.1 92.8205 1160 100.162 1160 109.327C1160 120.688 1156.76 129.343 1150.27 135.292C1143.84 141.24 1135 144.215 1123.75 144.215Z" fill="#F6F3E8" fill-opacity="0.05"/>
<path d="M1060.2 144.215C1052.43 144.215 1047.18 142.58 1044.45 139.311C1041.77 135.989 1040.43 130.924 1040.43 124.118V48.9561H1032.31V27.0104H1040.43V1.44727H1068.4V27.0104H1076.52V48.9561H1068.4V117.366C1068.4 119.348 1068.72 120.742 1069.37 121.546C1070.01 122.35 1071.24 122.752 1073.06 122.752C1074.35 122.752 1075.5 122.644 1076.52 122.43V142.044C1075.88 142.259 1073.87 142.661 1070.49 143.25C1067.12 143.893 1063.69 144.215 1060.2 144.215Z" fill="#F6F3E8" fill-opacity="0.05"/>
<path d="M985.891 144.215C972.386 144.215 962.793 140.758 957.113 133.845C951.485 126.931 948.672 116.776 948.672 103.378V66.2391C948.672 56.1639 949.744 47.7769 951.887 41.0779C954.031 34.379 957.782 29.3682 963.142 26.0455C968.501 22.7229 975.95 21.0615 985.489 21.0615C992.135 21.0615 998.083 22.2405 1003.34 24.5986C1008.64 26.9566 1012.82 30.4132 1015.88 34.9685C1018.93 39.5238 1020.46 45.0973 1020.46 51.689V70.0977H991.116V53.2164C991.116 50.4296 990.714 48.0984 989.91 46.2227C989.107 44.2934 987.365 43.3288 984.685 43.3288C979.969 43.3288 977.611 46.6782 977.611 53.3772V111.819C977.611 114.284 978.147 116.561 979.219 118.652C980.291 120.688 982.059 121.706 984.525 121.706C987.043 121.706 988.785 120.715 989.75 118.732C990.768 116.695 991.277 114.337 991.277 111.658V91.4003H1020.46V112.462C1020.46 119.107 1018.96 124.815 1015.96 129.584C1013.01 134.3 1008.94 137.918 1003.74 140.436C998.539 142.955 992.59 144.215 985.891 144.215Z" fill="#F6F3E8" fill-opacity="0.05"/>
<path d="M885.772 144.215C879.341 144.215 874.411 142.875 870.981 140.195C867.605 137.516 865.3 133.791 864.068 129.021C862.835 124.198 862.219 118.571 862.219 112.14V22.3477H891.158V108.764C891.158 113.587 891.533 116.963 892.284 118.893C893.034 120.768 894.802 121.706 897.589 121.706C900.59 121.706 902.466 120.366 903.216 117.687C904.02 115.007 904.422 111.551 904.422 107.317V22.3477H933.12V142.928H904.342V130.066C902.52 134.675 900.322 138.186 897.75 140.597C895.231 143.009 891.239 144.215 885.772 144.215Z" fill="#F6F3E8" fill-opacity="0.05"/>
<path d="M799.323 144.215C793.749 144.215 789.328 143.197 786.059 141.16C782.79 139.124 780.351 136.31 778.744 132.72C777.136 129.129 776.064 124.922 775.528 120.099C775.046 115.276 774.805 110.104 774.805 104.584V52.1716C774.805 42.9002 776.439 35.3974 779.708 29.6632C783.031 23.9289 788.631 21.0617 796.509 21.0617C802.351 21.0617 806.826 22.3211 809.934 24.8399C813.096 27.3051 815.534 30.7618 817.249 35.2099V1.44727H846.51V142.929H817.249V130.147C815.641 134.488 813.498 137.918 810.818 140.437C808.192 142.955 804.36 144.215 799.323 144.215ZM810.336 121.706C813.069 121.706 814.891 120.608 815.802 118.411C816.767 116.213 817.249 112.274 817.249 106.594V55.8694C817.249 53.029 816.82 50.2423 815.963 47.5091C815.159 44.7224 813.337 43.329 810.497 43.329C807.388 43.329 805.432 44.642 804.628 47.268C803.824 49.8939 803.423 52.7611 803.423 55.8694V106.594C803.423 116.669 805.727 121.706 810.336 121.706Z" fill="#F6F3E8" fill-opacity="0.05"/>
<path d="M723.885 144.215C699.876 144.215 687.871 131.755 687.871 106.835V58.4416C687.871 47.0802 691.06 38.0232 697.437 31.2707C703.815 24.4646 712.63 21.0615 723.885 21.0615C735.192 21.0615 744.035 24.4646 750.412 31.2707C756.79 38.0232 759.978 47.0802 759.978 58.4416V106.835C759.978 131.755 747.947 144.215 723.885 144.215ZM723.885 122.028C726.296 122.028 728.011 121.17 729.029 119.455C730.101 117.687 730.637 115.463 730.637 112.783V53.8595C730.637 46.839 728.386 43.3288 723.885 43.3288C719.383 43.3288 717.132 46.839 717.132 53.8595V112.783C717.132 115.463 717.641 117.687 718.659 119.455C719.731 121.17 721.473 122.028 723.885 122.028Z" fill="#F6F3E8" fill-opacity="0.05"/>
<path d="M626.82 142.928V22.3474H656.081V35.772C657.475 31.1096 659.94 27.4653 663.477 24.8394C667.014 22.2134 671.462 20.9004 676.821 20.9004V44.9362C674.463 44.9362 671.65 45.2041 668.38 45.74C665.111 46.2224 662.244 46.919 659.779 47.8301C657.314 48.6876 656.081 49.6522 656.081 50.724V142.928H626.82Z" fill="#F6F3E8" fill-opacity="0.05"/>
<path d="M539.242 163.025V22.3477H568.503V35.2097C570.272 30.7616 572.71 27.3049 575.818 24.8397C578.98 22.3209 583.482 21.0615 589.323 21.0615C597.201 21.0615 602.748 23.9287 605.964 29.663C609.233 35.3972 610.867 42.9 610.867 52.1714V111.497C610.867 117.66 609.983 123.234 608.214 128.218C606.499 133.148 603.766 137.06 600.015 139.954C596.317 142.795 591.467 144.215 585.465 144.215C577.64 144.215 571.987 139.499 568.503 130.067V163.025H539.242ZM575.336 121.787C578.337 121.787 580.132 120.286 580.722 117.285C581.365 114.284 581.687 110.586 581.687 106.192V59.0847C581.687 54.6366 581.365 50.9388 580.722 47.9912C580.132 44.9901 578.337 43.4895 575.336 43.4895C572.228 43.4895 570.298 45.0169 569.548 48.0716C568.851 51.0727 568.503 54.7437 568.503 59.0847V106.192C568.503 110.532 568.851 114.23 569.548 117.285C570.298 120.286 572.228 121.787 575.336 121.787Z" fill="#F6F3E8" fill-opacity="0.05"/>
<path d="M433.703 142.928V22.3474H462.964V35.772C464.357 31.1096 466.823 27.4653 470.36 24.8394C473.897 22.2134 478.345 20.9004 483.704 20.9004V44.9362C481.346 44.9362 478.532 45.2041 475.263 45.74C471.994 46.2224 469.127 46.919 466.662 47.8301C464.197 48.6876 462.964 49.6522 462.964 50.724V142.928H433.703Z" fill="#F6F3E8" fill-opacity="0.05"/>
<path d="M369.843 144.215C363.412 144.215 358.481 142.875 355.051 140.195C351.675 137.516 349.371 133.791 348.138 129.021C346.905 124.198 346.289 118.571 346.289 112.14V22.3477H375.228V108.764C375.228 113.587 375.604 116.963 376.354 118.893C377.104 120.768 378.873 121.706 381.659 121.706C384.661 121.706 386.536 120.366 387.287 117.687C388.09 115.007 388.492 111.551 388.492 107.317V22.3477H417.191V142.928H388.412V130.066C386.59 134.675 384.393 138.186 381.82 140.597C379.301 143.009 375.309 144.215 369.843 144.215Z" fill="#F6F3E8" fill-opacity="0.05"/>
<path d="M294.885 144.215C270.876 144.215 258.871 131.755 258.871 106.835V58.4416C258.871 47.0802 262.06 38.0232 268.437 31.2707C274.815 24.4646 283.63 21.0615 294.885 21.0615C306.192 21.0615 315.035 24.4646 321.412 31.2707C327.79 38.0232 330.978 47.0802 330.978 58.4416V106.835C330.978 131.755 318.947 144.215 294.885 144.215ZM294.885 122.028C297.296 122.028 299.011 121.17 300.029 119.455C301.101 117.687 301.637 115.463 301.637 112.783V53.8595C301.637 46.839 299.386 43.3288 294.885 43.3288C290.383 43.3288 288.132 46.839 288.132 53.8595V112.783C288.132 115.463 288.641 117.687 289.659 119.455C290.731 121.17 292.473 122.028 294.885 122.028Z" fill="#F6F3E8" fill-opacity="0.05"/>
<path d="M194.365 142.928L174.992 22.3477H203.851L210.764 102.896L218.562 22.3477H247.341L227.646 142.928H194.365Z" fill="#F6F3E8" fill-opacity="0.05"/>
<path d="M116.438 144.215C109.739 144.215 104.621 142.661 101.084 139.552C97.6003 136.444 95.2155 132.183 93.9293 126.771C92.6431 121.358 92 115.222 92 108.362C92 101.02 92.7235 95.0177 94.1705 90.3553C95.6174 85.6392 98.0826 81.7806 101.566 78.7795C105.103 75.7784 109.953 73.2328 116.116 71.1427L133.962 65.0333V52.6537C133.962 46.1691 131.845 42.9268 127.612 42.9268C123.753 42.9268 121.824 45.5528 121.824 50.8048V58.0396H93.8489C93.7953 57.6109 93.7685 57.075 93.7685 56.4319C93.7685 55.7352 93.7685 54.9581 93.7685 54.1007C93.7685 42.0962 96.5821 33.6019 102.209 28.6179C107.89 23.5803 116.866 21.0615 129.139 21.0615C135.57 21.0615 141.331 22.2137 146.422 24.5182C151.513 26.769 155.533 30.1185 158.48 34.5666C161.481 39.0147 162.982 44.5078 162.982 51.0459V142.928H134.364V128.62C132.971 133.657 130.666 137.516 127.451 140.195C124.235 142.875 120.564 144.215 116.438 144.215ZM127.772 121.867C130.13 121.867 131.738 120.876 132.596 118.893C133.453 116.91 133.882 114.766 133.882 112.462V78.8599C129.916 80.4676 126.834 82.5041 124.637 84.9693C122.44 87.3809 121.341 90.9448 121.341 95.6608V111.176C121.341 118.303 123.485 121.867 127.772 121.867Z" fill="#F6F3E8" fill-opacity="0.05"/>
<path d="M5.22517 142.928V49.5989H0V27.6532H5.22517V19.4537C5.22517 6.48456 11.7097 0 24.6789 0C30.7883 0 35.7187 0.777076 39.4701 2.33123V20.0968C38.1303 19.8288 37.2461 19.6949 36.8173 19.6949C35.156 19.6949 34.1378 20.3112 33.7626 21.5438C33.3875 22.7228 33.1999 24.2501 33.1999 26.1258V27.6532H39.4701V49.9204H33.7626V142.928H5.22517ZM48.7146 142.928V1.44697H77.9756V142.928H48.7146Z" fill="#F6F3E8" fill-opacity="0.05"/>
</g>
<defs>
<filter id="filter0_b_131_1669" x="-100" y="-100" width="1360" height="363.025" filterUnits="userSpaceOnUse" color-interpolation-filters="sRGB">
<feFlood flood-opacity="0" result="BackgroundImageFix"/>
<feGaussianBlur in="BackgroundImageFix" stdDeviation="50"/>
<feComposite in2="SourceAlpha" operator="in" result="effect1_backgroundBlur_131_1669"/>
<feBlend mode="normal" in="SourceGraphic" in2="effect1_backgroundBlur_131_1669" result="shape"/>
</filter>
</defs>
</svg>
