<svg width="112" height="45" viewBox="0 0 112 45" fill="none" xmlns="http://www.w3.org/2000/svg">
<mask id="mask0_92_2531" style="mask-type:alpha" maskUnits="userSpaceOnUse" x="0" y="0" width="112" height="45">
<path d="M44.9667 39.7535C45.1042 42.747 43.3589 44.1115 39.4452 44.1644C38.3838 44.1493 37.3242 44.0716 36.2719 43.9317C36.1269 43.906 35.9889 43.8504 35.8667 43.7683C35.7444 43.6863 35.6407 43.5796 35.562 43.4552C35.4833 43.3307 35.4315 43.1912 35.4099 43.0456C35.3882 42.9 35.3972 42.7514 35.4363 42.6095C36.9912 37.6168 34.516 33.1742 32.464 28.6893C31.9475 27.8427 31.2891 27.0913 30.5177 26.468C30.3658 26.3609 30.1937 26.286 30.0118 26.2478C29.8299 26.2096 29.6421 26.2089 29.4599 26.2459C29.3243 26.3148 29.2113 26.4212 29.1344 26.5524C29.0575 26.6837 29.0199 26.8343 29.0263 26.9863C29.2319 27.8322 29.5152 28.6572 29.8725 29.4509C31.512 33.0262 32.8765 36.6331 32.1255 40.4728C31.5437 43.4345 29.4705 44.8519 25.5357 44.9048C23.2996 44.9655 21.062 44.8665 18.84 44.6086C18.0848 44.5492 17.3837 44.1931 16.8902 43.6183C16.3967 43.0435 16.1508 42.2967 16.2062 41.5411C16.1654 40.9654 16.338 40.3947 16.6911 39.9382C17.0443 39.4816 17.5532 39.1711 18.1208 39.066C19.6122 38.59 20.3632 38.9602 20.6382 40.1766C20.7154 40.3809 20.8471 40.5602 21.019 40.6949C21.1784 40.84 21.3782 40.9329 21.5918 40.9612C21.8054 40.9896 22.0226 40.952 22.2143 40.8536C22.4975 40.739 22.7353 40.5346 22.8913 40.2718C23.5682 38.5582 21.7066 36.9928 18.9775 37.0985C18.5164 37.1784 18.0419 37.1146 17.6181 36.916C17.1943 36.7174 16.8418 36.3934 16.6082 35.9879C13.3185 31.027 10.0606 26.0449 8.37879 20.608C7.93224 19.1777 7.88469 17.6526 8.24128 16.1972C8.92882 13.5528 12.0704 11.9027 15.8254 11.8392C19.5805 11.7758 22.3624 13.3307 23.4413 15.9751C23.5629 16.164 23.7416 16.3094 23.9514 16.3899C24.1612 16.4705 24.3912 16.4822 24.6081 16.4233C24.825 16.3643 25.0174 16.2379 25.1576 16.0622C25.2977 15.8865 25.3783 15.6707 25.3876 15.4462C25.3254 15.1579 25.2405 14.8749 25.1337 14.6C24.0125 11.5748 19.993 9.31117 15.6985 9.12078C15.0215 9.12078 14.3446 9.12078 13.6464 9.12078C13.4667 9.12114 13.2898 9.07568 13.1325 8.98869C12.9752 8.90171 12.8426 8.77607 12.7473 8.62363C12.6521 8.47119 12.5972 8.29699 12.588 8.11747C12.5787 7.93795 12.6154 7.75903 12.6945 7.5976C13.8356 5.35015 15.3483 3.31171 17.1688 1.56837C17.9736 0.820041 18.9727 0.313128 20.0519 0.105515C21.1311 -0.102098 22.247 -0.0020425 23.2721 0.394256C24.9983 0.979328 26.6809 1.68628 28.307 2.50978C30.8771 3.82308 33.2901 5.42346 35.4998 7.28027C35.6161 7.38605 36.0498 7.77742 35.9546 8.02071C35.8594 8.26399 34.5901 8.02071 32.4111 8.26399C31.3533 8.34861 30.7081 8.50727 30.5177 8.95153C30.4637 9.10923 30.4637 9.28041 30.5177 9.4381C30.6341 9.87179 31.7236 10.3266 32.4746 10.4959C33.6593 10.6968 34.9391 10.5911 36.1661 10.7074C39.625 11.0353 41.0424 12.8229 39.6673 15.2981C38.2922 17.7733 35.6902 19.5291 32.3688 20.5129C31.5708 20.6865 30.7861 20.9162 30.0206 21.2004C29.8667 21.3109 29.7453 21.4607 29.6691 21.6341C29.5929 21.8075 29.5647 21.9983 29.5874 22.1863C29.6101 22.3744 29.6829 22.5529 29.7981 22.7033C29.9134 22.8536 30.0669 22.9702 30.2427 23.0409C30.4403 23.1058 30.6488 23.131 30.8562 23.1149C32.2671 22.8867 33.6548 22.5327 35.0026 22.0572C37.6047 21.2427 37.8268 21.2321 38.9692 23.1149C42.0579 28.4778 44.7023 33.8724 44.9667 39.7535ZM6.11518 23.7496C5.34302 22.4274 4.53912 22.2264 3.37558 23.3582C2.58284 24.1249 1.93435 25.0277 1.46104 26.0238C0.471018 28.0213 -0.0293393 30.2258 0.00132942 32.455C0.00132942 33.0262 0.181149 34.1051 0.519632 36.2523C0.858115 38.3996 1.05909 39.4256 1.12256 39.7218C2.04281 43.773 6.34789 45.7827 11.6367 44.7144C13.9003 44.249 14.5138 43.6566 14.5667 41.8373C14.5667 41.4988 14.5032 41.0969 14.7042 40.7795C15.762 39.3727 14.8629 38.2515 14.0695 36.9928C11.2876 32.6454 8.7067 28.2028 6.11518 23.7496ZM66.6402 26.1507H50.9748V18.6829H66.6402C66.7666 18.7005 66.8953 18.6885 67.0162 18.648C67.1372 18.6074 67.2471 18.5393 67.3373 18.4491C67.4275 18.3589 67.4955 18.249 67.5361 18.1281C67.5766 18.0072 67.5886 17.8784 67.571 17.7521C67.5886 17.6257 67.5766 17.497 67.5361 17.3761C67.4955 17.2552 67.4275 17.1453 67.3373 17.0551C67.2471 16.9649 67.1372 16.8968 67.0162 16.8562C66.8953 16.8157 66.7666 16.8037 66.6402 16.8213H59.2359C53.7073 16.8213 50.9395 14.0217 50.9325 8.42266C50.9254 2.82358 53.6932 0.0240397 59.2359 0.0240397H74.9542V7.49183H59.2359C59.1099 7.4738 58.9815 7.48555 58.8609 7.52612C58.7402 7.5667 58.6308 7.63497 58.5413 7.72547C58.4519 7.81597 58.3848 7.92617 58.3457 8.04725C58.3065 8.16832 58.2962 8.29689 58.3156 8.42266C58.2962 8.54842 58.3065 8.67699 58.3457 8.79806C58.3848 8.91914 58.4519 9.02934 58.5413 9.11984C58.6308 9.21034 58.7402 9.27861 58.8609 9.31919C58.9815 9.35976 59.1099 9.37151 59.2359 9.35348H66.6402C72.1829 9.35348 74.9507 12.153 74.9436 17.7521C74.9366 23.3512 72.1688 26.1507 66.6402 26.1507ZM86.0713 11.2151V26.1507H78.667V0.0240397H86.0713L95.2949 9.35348L104.519 0.0240397H111.923V26.1507H104.519V11.2151L95.2949 20.5552L86.0713 11.2151ZM59.5321 35.385V45H55.7241V35.385H50.9748V31.5347H64.2814V35.385H59.5321ZM70.0145 41.1498H78.5718V45H66.2065V31.5347H78.5718V35.385H70.0145V36.3475H78.5718V40.2189H70.0145V41.1498ZM89.0542 31.5347H92.8621V45H89.0542V37.3101L81.4489 45H75.7475L89.0542 31.5347ZM98.574 37.3101V45H94.7872V31.5347H98.5846L103.344 36.3475L108.094 31.5347H111.902V45H108.094V37.3101L103.344 42.1123L98.574 37.3101Z" fill="#F2F0EB"/>
</mask>
<g mask="url(#mask0_92_2531)">
<path d="M49.7148 28.5596H113.18V65.5812H49.7148V28.5596Z" fill="#F6F3E8"/>
<path d="M49.7148 -8.46191H113.18V28.5597H49.7148V-8.46191Z" fill="#F6F3E8"/>
<path d="M-14 -1H50V46H-14V-1Z" fill="url(#paint0_linear_92_2531)"/>
</g>
<defs>
<linearGradient id="paint0_linear_92_2531" x1="42.2442" y1="-0.999994" x2="-15.723" y2="24.1688" gradientUnits="userSpaceOnUse">
<stop stop-color="#FF7822"/>
<stop offset="1" stop-color="#FFE722"/>
</linearGradient>
</defs>
</svg>
