<svg width="126" height="80" viewBox="0 0 126 80" fill="none" xmlns="http://www.w3.org/2000/svg">
<path d="M89.6688 47.1074C89.8318 50.6549 87.7635 52.2719 83.1129 52.3346C81.855 52.3172 80.5993 52.2251 79.3523 52.0588C79.1794 52.03 79.0144 51.9652 78.8681 51.8686C78.7218 51.772 78.5974 51.6458 78.5028 51.4981C78.4083 51.3505 78.3459 51.1846 78.3194 51.0113C78.293 50.838 78.3033 50.661 78.3495 50.4919C80.1922 44.5753 77.2714 39.3104 74.8396 33.9955C74.2275 32.9959 73.4521 32.1061 72.5456 31.3631C72.3644 31.2387 72.1603 31.1514 71.9452 31.1063C71.73 31.0611 71.5081 31.0589 71.2921 31.0998C71.1326 31.1819 71.0004 31.3085 70.9114 31.4643C70.8224 31.62 70.7805 31.7982 70.7907 31.9773C71.03 32.9793 71.3616 33.9571 71.781 34.898C73.7365 39.1349 75.3535 43.4095 74.4635 47.9598C73.7741 51.4697 71.3172 53.1494 66.6415 53.2121C63.9958 53.284 61.3482 53.1667 58.7192 52.8611C57.8241 52.7906 56.9934 52.3687 56.4085 51.6875C55.8236 51.0063 55.5322 50.1213 55.5979 49.2259C55.549 48.5453 55.7519 47.8706 56.1679 47.3298C56.5838 46.789 57.184 46.4199 57.8543 46.2926C59.6217 45.7285 60.5117 46.1672 60.8502 47.6088C60.9417 47.8509 61.0978 48.0634 61.3015 48.223C61.4922 48.3836 61.7264 48.4837 61.9742 48.5105C62.2221 48.5373 62.4723 48.4896 62.6929 48.3735C63.0337 48.2408 63.3204 47.9981 63.5077 47.684C64.3099 45.6533 62.0912 43.7981 58.8696 43.9234C58.3271 44.0215 57.7675 43.9517 57.2657 43.7232C56.764 43.4947 56.3439 43.1185 56.0617 42.6448C52.1632 36.7658 48.3024 30.8616 46.3093 24.4185C45.7801 22.7234 45.7237 20.916 46.1463 19.1913C46.9486 16.0575 50.6715 14.102 55.1341 14.0267C59.5967 13.9515 62.8684 15.7942 64.1595 18.928C64.3111 19.1385 64.5242 19.2968 64.7695 19.381C65.0147 19.4653 65.2801 19.4714 65.529 19.3985C65.7779 19.3256 65.9981 19.1774 66.1591 18.9741C66.3202 18.7709 66.4143 18.5226 66.4284 18.2637C66.3563 17.9201 66.2514 17.5843 66.115 17.2609C64.8615 13.6758 60.0354 10.9932 54.9335 10.7676C54.1438 10.7676 53.3416 10.7676 52.5142 10.7676C52.3099 10.756 52.1116 10.6945 51.9365 10.5886C51.7614 10.4826 51.6149 10.3355 51.5098 10.1599C51.4047 9.98431 51.3442 9.78567 51.3336 9.58132C51.3229 9.37697 51.3625 9.17311 51.4487 8.98756C52.8053 6.3268 54.5976 3.91175 56.7512 1.84244C57.7066 0.962651 58.889 0.36736 60.1648 0.123721C61.4406 -0.119919 62.759 -0.00221384 63.9715 0.463559C66.0173 1.15692 68.0112 1.99471 69.9383 2.97062C72.9812 4.52537 75.8368 6.4221 78.4498 8.62404C78.6002 8.74939 79.1141 9.21319 79.0013 9.50151C78.8885 9.78982 77.3843 9.50151 74.802 9.78982C73.5485 9.8901 72.7838 10.0781 72.5582 10.6046C72.4942 10.7915 72.4942 10.9944 72.5582 11.1812C72.6961 11.6952 73.9872 12.2342 74.8647 12.4348C76.2812 12.6729 77.7854 12.5476 79.2395 12.6855C83.3511 13.0741 85.0308 15.1925 83.4012 18.1258C81.7716 21.059 78.6879 23.1399 74.7518 24.3057C73.8058 24.5098 72.8757 24.7821 71.969 25.1205C71.7867 25.2514 71.6428 25.4289 71.5525 25.6345C71.4622 25.84 71.4288 26.066 71.4557 26.2889C71.4826 26.5118 71.5688 26.7233 71.7054 26.9015C71.842 27.0796 72.024 27.2178 72.2323 27.3016C72.4621 27.3786 72.7051 27.4084 72.9468 27.3894C74.6232 27.1203 76.272 26.7008 77.8731 26.1358C80.9568 25.1706 81.2075 25.1581 82.5613 27.3894C86.2091 33.7448 89.3429 40.1378 89.6688 47.1074ZM43.6267 28.1415C42.7116 26.5746 41.7464 26.3364 40.3675 27.6777C39.4348 28.5892 38.6709 29.6586 38.1112 30.8366C36.9433 33.2057 36.3507 35.8169 36.3813 38.458C36.3813 39.1349 36.6069 40.4135 37.0081 42.9582C37.4092 45.5029 37.6474 46.7188 37.7226 47.0698C38.8006 51.8708 43.915 54.2525 50.0949 52.9864C52.79 52.4349 53.5171 51.7329 53.5797 49.5768C53.5797 49.1757 53.492 48.6994 53.7302 48.3233C54.9837 46.6561 53.9182 45.3274 52.9906 43.8357C49.7314 38.6837 46.6853 33.4188 43.6267 28.1415ZM11.5113 79.9749H0.84375V74.8981H11.5113C11.6561 74.869 11.7863 74.7907 11.8799 74.6764C11.9735 74.5622 12.0246 74.4191 12.0246 74.2714C12.0246 74.1237 11.9735 73.9806 11.8799 73.8663C11.7863 73.752 11.6561 73.6737 11.5113 73.6446H6.49717C2.72822 73.6363 0.84375 71.7267 0.84375 67.916C0.84375 64.1554 2.72404 62.2124 6.48463 62.2124H17.1396V67.2265H6.48463C6.3994 67.2139 6.31237 67.2213 6.23054 67.2483C6.1487 67.2753 6.07434 67.3211 6.0134 67.3821C5.95246 67.443 5.90665 67.5174 5.87964 67.5992C5.85263 67.681 5.84518 67.7681 5.85787 67.8533C5.84569 67.939 5.8534 68.0264 5.88039 68.1086C5.90739 68.1908 5.95295 68.2658 6.01355 68.3276C6.07414 68.3894 6.14815 68.4364 6.22984 68.465C6.31153 68.4936 6.39871 68.5031 6.48463 68.4926H11.4987C15.2593 68.4926 17.1396 70.3938 17.1396 74.1962C17.1396 77.9985 15.2635 79.9248 11.5113 79.9749ZM24.6608 69.8213V79.9749H19.6467V62.2124H24.6608L30.9285 68.5553L37.1961 62.2124H42.2102V79.9749H37.1961V69.8213L30.9285 76.1642L24.6608 69.8213ZM56.0617 67.3143V79.9749H51.0476V67.2892H44.78V62.2751H62.3294V67.2892L56.0617 67.3143ZM69.8505 74.9232H81.1323V80H64.8364V62.2124H81.1323V67.2265H69.8505V68.4801H81.1323V73.4942H69.8505V74.9232ZM95.0716 62.2124H100.086V79.9749H95.0716V69.8213L85.0433 79.9749H77.5221L95.0716 62.2124ZM107.607 69.8213V79.9749H102.593V62.2124H107.607L113.874 68.5553L120.142 62.2124H125.156V79.9749H120.142V69.8213L113.874 76.1642L107.607 69.8213Z" fill="#F6F3E8"/>
</svg>
