<svg width="13" height="15" viewBox="0 0 13 15" fill="none" xmlns="http://www.w3.org/2000/svg">
<path d="M12.2144 15C12.2144 13.4845 11.6123 12.031 10.5407 10.9594C9.46904 9.88775 8.01559 9.28571 6.50007 9.28571C4.98455 9.28571 3.5311 9.88775 2.45946 10.9594C1.38782 12.031 0.785785 13.4845 0.785785 15H2.21436C2.21436 13.8634 2.66588 12.7733 3.46961 11.9695C4.27334 11.1658 5.36343 10.7143 6.50007 10.7143C7.63671 10.7143 8.7268 11.1658 9.53053 11.9695C10.3343 12.7733 10.7858 13.8634 10.7858 15H12.2144ZM6.50007 8.57143C8.86793 8.57143 10.7858 6.65357 10.7858 4.28571C10.7858 1.91786 8.86793 0 6.50007 0C4.13221 0 2.21436 1.91786 2.21436 4.28571C2.21436 6.65357 4.13221 8.57143 6.50007 8.57143ZM6.50007 7.14286C4.9215 7.14286 3.64293 5.86429 3.64293 4.28571C3.64293 2.70714 4.9215 1.42857 6.50007 1.42857C8.07864 1.42857 9.35721 2.70714 9.35721 4.28571C9.35721 5.86429 8.07864 7.14286 6.50007 7.14286Z" fill="#F6F3E8"/>
</svg>
