<svg width="19" height="18" viewBox="0 0 19 18" fill="none" xmlns="http://www.w3.org/2000/svg">
<path d="M10.8004 8.1V5.4L6.30039 9L10.8004 12.6V9.9H18.9004V8.1H10.8004ZM17.5882 11.7H15.6766C15.0483 13.2472 13.9021 14.528 12.4338 15.3233C10.9655 16.1187 9.26651 16.3792 7.6274 16.0603C5.98828 15.7413 4.51091 14.8628 3.448 13.5749C2.38508 12.287 1.80267 10.6699 1.80039 9C1.79946 7.32839 2.38019 5.70855 3.44298 4.4183C4.50577 3.12805 5.98439 2.2478 7.62522 1.92853C9.26605 1.60926 10.9668 1.87087 12.4359 2.66848C13.9049 3.46609 15.0507 4.75 15.6766 6.3H17.5882C16.4416 2.6487 13.0306 0 9.00039 0C4.02969 0 0.000389099 4.0293 0.000389099 9C0.000389099 13.9707 4.02969 18 9.00039 18C13.0306 18 16.4416 15.3513 17.5882 11.7Z" fill="#F6F3E8"/>
</svg>
